HIERARCHY
ROOT Hips
{
	OFFSET 0.00000 0.00000 0.00000
	CHANNELS 6 Xposition Yposition Zposition Zrotation Yrotation Xrotation 
	JOINT RightUpLegDummy
	{
		OFFSET 0 0 0
		CHANNELS 3 Zrotation Yrotation Xrotation
		JOINT RightUpLeg
		{
			OFFSET -3.52197 -3.41223 0.04002
			CHANNELS 3 Zrotation Yrotation Xrotation
			JOINT RightLeg
			{
				OFFSET 0.00006 -17.42390 1.60435
				CHANNELS 3 Zrotation Yrotation Xrotation
				JOINT RightFoot
				{
					OFFSET 0.06154 -16.50078 -1.63900
					CHANNELS 3 Zrotation Yrotation Xrotation
					JOINT RightToes
					{
						OFFSET 0.00298 -1.73825 3.34613
						CHANNELS 3 Zrotation Yrotation Xrotation
						End Site
						{
							OFFSET 0.00480 -0.05416 3.85043
						}
					}
				}
			}
		}
	}
	JOINT SpineDummy
	{
		OFFSET 0 0 0
		CHANNELS 3 Zrotation Yrotation Xrotation
		JOINT Spine
		{
			OFFSET 0.00000 4.68130 0.00000
			CHANNELS 3 Zrotation Yrotation Xrotation
			JOINT Spine1
			{
				OFFSET -0.00000 10.10138 0.05002
				CHANNELS 3 Zrotation Yrotation Xrotation
				JOINT HEadDummy
				{
					OFFSET 0 0 0
					CHANNELS 3 Zrotation Yrotation Xrotation
					JOINT Head
					{
						OFFSET -0.00000 3.43865 0.00438
						CHANNELS 3 Zrotation Yrotation Xrotation
						End Site
						{
							OFFSET -0.11417 5.02924 0.98962
						}
					}
				}
				JOINT LeftShoulder1Dummy
				{
					OFFSET 0 0 0
					CHANNELS 3 Zrotation Yrotation Xrotation
					JOINT LeftShoulder1
					{
						OFFSET 3.53937 -0.14262 -0.08662
						CHANNELS 3 Zrotation Yrotation Xrotation
						JOINT LeftArm
						{
							OFFSET 4.04833 -0.00133 0.12681
							CHANNELS 3 Zrotation Yrotation Xrotation
							JOINT LeftForeArm
							{
								OFFSET 10.33880 -0.01036 -0.55515
								CHANNELS 3 Zrotation Yrotation Xrotation
								JOINT LeftHand
								{
									OFFSET 8.69677 0.07543 0.40060
									CHANNELS 3 Zrotation Yrotation Xrotation
									End Site
									{
										OFFSET 5.28377 -0.21905 0.59205
									}
								}
							}
						}
					}
				}
				JOINT RightShoulderDummy
				{
					OFFSET 0 0 0
					CHANNELS 3 Zrotation Yrotation Xrotation
					JOINT RightShoulder
					{
						OFFSET -3.53937 -0.14262 -0.08660
						CHANNELS 3 Zrotation Yrotation Xrotation
						JOINT RightArm
						{
							OFFSET -4.04833 -0.00133 0.12683
							CHANNELS 3 Zrotation Yrotation Xrotation
							JOINT RightForeArm
							{
								OFFSET -10.37987 -0.01039 -0.55511
								CHANNELS 3 Zrotation Yrotation Xrotation
								JOINT RightHand
								{
									OFFSET -8.67398 0.07538 0.40058
									CHANNELS 3 Zrotation Yrotation Xrotation
									End Site
									{
										OFFSET -5.24810 -0.21916 0.59204
									}
								}
							}
						}
					}
				}
			}
		}
	}
	JOINT LeftUpLegDummy
	{
		OFFSET 0 0 0
		CHANNELS 3 Zrotation Yrotation Xrotation
		JOINT LeftUpLeg
		{
			OFFSET 3.52197 -3.41223 0.04002
			CHANNELS 3 Zrotation Yrotation Xrotation
			JOINT LeftLeg
			{
				OFFSET -0.00012 -17.42399 1.60337
				CHANNELS 3 Zrotation Yrotation Xrotation
				JOINT LeftFoot
				{
					OFFSET -0.09972 -16.50070 -1.63802
					CHANNELS 3 Zrotation Yrotation Xrotation
					JOINT LeftToes
					{
						OFFSET -0.01575 -1.73823 3.34611
						CHANNELS 3 Zrotation Yrotation Xrotation
						End Site
						{
							OFFSET 0.03150 -0.01868 3.85031
						}
					}
				}
			}
		}
	}
}
MOTION
Frames: 7
Frame Time: 0.033333
-21.4699 38.8499 32.9857 20.5985 82.2897 21.0363 0.0000 0.0000 0.0000 -3.9127 -2.2586 14.1796 -1.0114 -1.5938 23.5426 16.6081 -0.7930 -6.1837 -0.0000 -0.0000 0.0000 0.0000 0.0000 0.0000 -2.1970 2.3864 -10.1114 -0.9794 3.1546 20.0667 0.0000 0.0000 0.0000 -0.2188 0.2224 -8.9449 0.0000 0.0000 0.0000 -18.6329 -4.2916 1.9629 -61.4426 6.0801 -25.3578 -10.6312 4.9643 53.3923 9.7603 -1.2412 -0.5452 0.0000 0.0000 0.0000 19.6794 -0.3137 0.8354 57.5393 28.0569 23.3074 0.7088 28.8077 -1.9489 -7.7963 2.6635 -0.5182 0.0000 0.0000 0.0000 -4.2493 -3.2003 -18.1456 -2.1936 15.5286 -0.8219 5.5570 -1.2433 12.7338 -0.0000 0.0000 -0.0000
-19.8228 38.7883 33.1415 41.4507 81.9679 41.4023 0.0000 0.0000 0.0000 -7.1485 -3.4331 10.3209 -2.6075 -2.7609 34.4136 18.9025 -2.7740 5.4391 -0.0000 -0.0000 0.0000 0.0000 0.0000 0.0000 -7.3545 1.9045 -8.9801 -0.2613 2.4853 19.1928 0.0000 0.0000 0.0000 -0.0461 0.6060 -8.6842 0.0000 0.0000 0.0000 -18.6696 -4.2628 1.9583 -60.8645 4.2932 -26.3770 -9.7335 5.0100 52.2910 10.0879 -1.2526 -0.5648 0.0000 0.0000 0.0000 19.9348 -0.2041 0.8719 58.4971 24.9958 23.6255 0.6358 26.5464 -2.4025 -8.3878 2.7911 -0.5674 0.0000 0.0000 0.0000 -7.0184 -3.6905 -17.5344 -2.2604 14.5528 3.6592 6.6548 -1.3841 10.9338 -0.0000 0.0000 -0.0000
-18.3919 38.6357 33.2615 57.4727 80.4616 56.6829 0.0000 0.0000 0.0000 -9.9898 -2.9019 4.4841 -5.4782 -4.0127 46.8017 18.4132 -4.6315 17.1409 -0.0000 -0.0000 0.0000 0.0000 0.0000 0.0000 -11.6607 1.5159 -6.9656 -0.6140 1.8721 18.5915 0.0000 0.0000 0.0000 0.0928 0.1291 -8.6096 0.0000 0.0000 0.0000 -19.0239 -4.3117 1.9964 -59.6605 1.1700 -26.2930 -9.5099 5.0968 49.5359 10.7131 -1.3194 -0.6063 0.0000 0.0000 0.0000 19.9626 -0.0377 0.9166 59.8693 23.0833 23.5079 1.5205 22.8039 -1.8119 -8.6107 2.6863 -0.5762 0.0000 0.0000 0.0000 -9.7860 -3.8082 -16.8377 -2.0761 14.2488 8.7484 5.7687 -0.9179 6.0061 -0.0000 0.0000 -0.0000
-16.9644 38.5995 33.3153 63.0352 79.3841 61.5063 0.0000 0.0000 0.0000 -11.3682 -1.6242 -1.7380 -8.3451 -4.1452 57.1400 16.2107 -4.7579 21.6867 -0.0000 -0.0000 0.0000 0.0000 0.0000 0.0000 -13.2392 1.1509 -5.6174 -1.9630 1.5000 18.5136 0.0000 0.0000 0.0000 -0.1818 0.8498 -8.3349 0.0000 0.0000 0.0000 -19.6009 -4.4303 2.0691 -58.1982 -2.7044 -25.4057 -9.7237 5.1726 46.8334 11.8832 -1.6283 -0.7042 0.0000 0.0000 0.0000 19.7227 0.1939 0.9695 60.6906 21.7404 16.3084 5.8361 18.1965 7.3459 -7.7761 2.3264 -0.4975 0.0000 0.0000 0.0000 -11.6964 -3.8617 -14.8282 -1.5086 14.0197 11.3098 5.2801 -0.6527 2.4686 -0.0000 0.0000 -0.0000
-15.3910 38.8299 33.3077 63.9516 79.9044 61.9716 0.0000 0.0000 0.0000 -10.9911 -0.9493 -7.6760 -11.0808 -4.0804 63.6038 12.1661 -3.3464 19.8608 -0.0000 -0.0000 0.0000 0.0000 0.0000 0.0000 -12.3575 0.4951 -5.2204 -3.0580 0.9829 18.1165 0.0000 0.0000 0.0000 -0.7014 2.0847 -7.2900 0.0000 0.0000 0.0000 -19.9635 -4.3508 2.0749 -57.2021 -6.7355 -24.1297 -10.0517 5.2327 44.9996 13.8546 -2.1683 -0.8852 0.0000 0.0000 0.0000 19.3808 0.4042 1.0122 60.7693 19.8800 8.0132 9.7663 13.6541 18.9789 -6.0437 1.9504 -0.3651 0.0000 0.0000 0.0000 -12.2447 -3.8359 -11.4871 -0.9190 13.3489 10.9716 5.3537 -0.5618 0.5527 -0.0000 0.0000 -0.0000
-13.8115 39.0659 33.3059 67.3703 81.2254 65.2877 0.0000 0.0000 0.0000 -10.1047 -1.1713 -13.1716 -13.7038 -4.4402 66.1211 8.5606 -2.0319 16.1847 -0.0000 -0.0000 0.0000 0.0000 0.0000 0.0000 -11.6935 -0.4556 -4.9850 -2.8899 -0.1322 17.3047 0.0000 0.0000 0.0000 -1.0743 2.8665 -6.1551 0.0000 0.0000 0.0000 -19.8667 -3.9832 1.9714 -56.8942 -10.8811 -22.4345 -10.5498 5.2432 42.6423 16.0162 -2.6196 -1.0853 0.0000 0.0000 0.0000 19.1534 0.5031 1.0293 60.3976 17.3221 4.6982 11.4818 10.8822 26.0029 -4.4565 1.7344 -0.2577 0.0000 0.0000 0.0000 -12.1541 -3.6219 -8.4946 -0.4499 12.0685 10.7733 5.1605 -0.4231 -1.7563 -0.0000 0.0000 -0.0000
-12.2942 39.1583 33.3486 77.4123 82.4466 75.2516 0.0000 0.0000 0.0000 -9.5373 -1.7011 -17.8880 -15.1048 -5.1647 65.3285 7.0034 -1.5022 13.6907 -0.0000 -0.0000 0.0000 0.0000 0.0000 0.0000 -12.3272 -1.5142 -4.6493 -1.5460 -1.6835 16.8542 0.0000 0.0000 0.0000 -1.1905 3.1669 -5.9722 0.0000 0.0000 0.0000 -19.5110 -3.6230 1.8528 -56.7762 -15.2708 -20.2247 -11.3642 4.0857 38.4995 17.1508 -2.7489 -1.1834 0.0000 0.0000 0.0000 19.0339 0.5643 1.0405 59.8654 14.4615 3.8853 12.0358 9.9486 28.6308 -3.9016 1.6046 -0.2205 0.0000 0.0000 0.0000 -12.0443 -3.2792 -6.2125 -0.1526 10.2408 11.8980 5.1719 -0.2791 -4.5328 -0.0000 0.0000 -0.0000
